<svg width="48" height="48" viewBox="0 0 48 48" fill="none" xmlns="http://www.w3.org/2000/svg">
<g clip-path="url(#clip0_2253_8261)">
<path d="M35.7141 27.6389L27.5441 19.4689C27.0796 19.0033 26.5279 18.6339 25.9204 18.3818C25.313 18.1297 24.6618 18 24.0041 18C23.3464 18 22.6952 18.1297 22.0878 18.3818C21.4803 18.6339 20.9285 19.0033 20.4641 19.4689L12.2941 27.6389C12.1058 27.8272 12 28.0826 12 28.3489C12 28.6152 12.1058 28.8706 12.2941 29.0589C12.4824 29.2472 12.7378 29.353 13.0041 29.353C13.2704 29.353 13.5258 29.2472 13.7141 29.0589L21.8841 20.8889C22.4466 20.3271 23.2091 20.0116 24.0041 20.0116C24.7991 20.0116 25.5616 20.3271 26.1241 20.8889L34.2941 29.0589C34.3871 29.1527 34.4977 29.2271 34.6195 29.2778C34.7414 29.3286 34.8721 29.3547 35.0041 29.3547C35.1361 29.3547 35.2668 29.3286 35.3887 29.2778C35.5105 29.2271 35.6211 29.1527 35.7141 29.0589C35.8078 28.966 35.8822 28.8554 35.933 28.7335C35.9838 28.6117 36.0099 28.4809 36.0099 28.3489C36.0099 28.2169 35.9838 28.0862 35.933 27.9644C35.8822 27.8425 35.8078 27.7319 35.7141 27.6389Z" fill="#301207"/>
</g>
<defs>
<clipPath id="clip0_2253_8261">
<rect width="24" height="24" fill="white" transform="translate(12 12)"/>
</clipPath>
</defs>
</svg>
