<svg width="25" height="24" viewBox="0 0 25 24" fill="none" xmlns="http://www.w3.org/2000/svg">
<g clip-path="url(#clip0_2014_2879)">
<path d="M21.5 2H18.5V0H16.5V2H8.5V0H6.5V2H3.5C2.70435 2 1.94129 2.31607 1.37868 2.87868C0.81607 3.44129 0.5 4.20435 0.5 5V24H24.5V5C24.5 4.20435 24.1839 3.44129 23.6213 2.87868C23.0587 2.31607 22.2956 2 21.5 2ZM2.5 5C2.5 4.73478 2.60536 4.48043 2.79289 4.29289C2.98043 4.10536 3.23478 4 3.5 4H21.5C21.7652 4 22.0196 4.10536 22.2071 4.29289C22.3946 4.48043 22.5 4.73478 22.5 5V8H2.5V5ZM2.5 22V10H22.5V22H2.5Z" fill="#6C452B"/>
<path d="M17.5 13.0001H15.5V15.0001H17.5V13.0001Z" fill="#6C452B"/>
<path d="M13.5002 13.0001H11.5002V15.0001H13.5002V13.0001Z" fill="#6C452B"/>
<path d="M9.49984 13.0001H7.49984V15.0001H9.49984V13.0001Z" fill="#6C452B"/>
<path d="M17.5 17.0001H15.5V19.0002H17.5V17.0001Z" fill="#6C452B"/>
<path d="M13.5002 17.0001H11.5002V19.0002H13.5002V17.0001Z" fill="#6C452B"/>
<path d="M9.49984 17.0001H7.49984V19.0002H9.49984V17.0001Z" fill="#6C452B"/>
</g>
<defs>
<clipPath id="clip0_2014_2879">
<rect width="24" height="24" fill="white" transform="translate(0.5)"/>
</clipPath>
</defs>
</svg>
