<svg width="16" height="16" viewBox="0 0 16 16" fill="none" xmlns="http://www.w3.org/2000/svg">
<g clip-path="url(#clip0_2291_7108)">
<path d="M13.9333 2.194C13.6985 1.55148 13.2721 0.996531 12.7118 0.604157C12.1514 0.211782 11.4841 0.000895962 10.8 0H5.2C4.51592 0.000895962 3.84861 0.211782 3.28824 0.604157C2.72788 0.996531 2.30148 1.55148 2.06667 2.194L0.26667 7.14533C0.0896361 7.63298 -0.000616488 8.14787 3.16924e-06 8.66667V9.33333C0.00119272 9.84853 0.122292 10.3564 0.353713 10.8167C0.585135 11.277 0.920526 11.6771 1.33334 11.9853C1.33334 11.9907 1.33334 11.9947 1.33334 12V13.3333C1.33334 13.8638 1.54405 14.3725 1.91912 14.7475C2.2942 15.1226 2.8029 15.3333 3.33334 15.3333C3.86377 15.3333 4.37248 15.1226 4.74755 14.7475C5.12262 14.3725 5.33334 13.8638 5.33334 13.3333V12.6667H10.6667V13.3333C10.6667 13.8638 10.8774 14.3725 11.2525 14.7475C11.6275 15.1226 12.1362 15.3333 12.6667 15.3333C13.1971 15.3333 13.7058 15.1226 14.0809 14.7475C14.456 14.3725 14.6667 13.8638 14.6667 13.3333V12C14.6667 11.9947 14.6667 11.9907 14.6667 11.9853C15.0795 11.6771 15.4149 11.277 15.6463 10.8167C15.8777 10.3564 15.9988 9.84853 16 9.33333V8.66667C16.0007 8.14809 15.9104 7.6334 15.7333 7.146L13.9333 2.194ZM3.32134 2.65C3.46229 2.26478 3.71796 1.93203 4.05388 1.6966C4.38979 1.46118 4.78981 1.33439 5.2 1.33333H10.8C11.2104 1.33412 11.6107 1.46078 11.9469 1.69622C12.2831 1.93167 12.539 2.26457 12.68 2.65L14.1387 6.66667H1.86067L3.32134 2.65ZM4 13.3333C4 13.5101 3.92977 13.6797 3.80474 13.8047C3.67972 13.9298 3.51015 14 3.33334 14C3.15653 14 2.98696 13.9298 2.86193 13.8047C2.73691 13.6797 2.66667 13.5101 2.66667 13.3333V12.6C2.88609 12.6446 3.10944 12.6669 3.33334 12.6667H4V13.3333ZM13.3333 13.3333C13.3333 13.5101 13.2631 13.6797 13.1381 13.8047C13.0131 13.9298 12.8435 14 12.6667 14C12.4899 14 12.3203 13.9298 12.1953 13.8047C12.0702 13.6797 12 13.5101 12 13.3333V12.6667H12.6667C12.8906 12.6669 13.1139 12.6446 13.3333 12.6V13.3333ZM14.6667 9.33333C14.6667 9.86377 14.456 10.3725 14.0809 10.7475C13.7058 11.1226 13.1971 11.3333 12.6667 11.3333H3.33334C2.8029 11.3333 2.2942 11.1226 1.91912 10.7475C1.54405 10.3725 1.33334 9.86377 1.33334 9.33333V8.66667C1.33605 8.44218 1.3631 8.21865 1.414 8H2.66667V8.66667C2.66667 8.84348 2.73691 9.01305 2.86193 9.13807C2.98696 9.26309 3.15653 9.33333 3.33334 9.33333C3.51015 9.33333 3.67972 9.26309 3.80474 9.13807C3.92977 9.01305 4 8.84348 4 8.66667V8H12V8.66667C12 8.84348 12.0702 9.01305 12.1953 9.13807C12.3203 9.26309 12.4899 9.33333 12.6667 9.33333C12.8435 9.33333 13.0131 9.26309 13.1381 9.13807C13.2631 9.01305 13.3333 8.84348 13.3333 8.66667V8H14.586C14.6369 8.21865 14.664 8.44218 14.6667 8.66667V9.33333Z" fill="#B56C27" fill-opacity="0.7"/>
</g>
<defs>
<clipPath id="clip0_2291_7108">
<rect width="16" height="16" fill="white"/>
</clipPath>
</defs>
</svg>
