<svg width="24" height="24" viewBox="0 0 24 24" fill="none" xmlns="http://www.w3.org/2000/svg">
<path d="M18.2928 6.29279C18.1053 6.10532 17.851 6 17.5858 6C17.3206 6 17.0663 6.10532 16.8788 6.29279L12.2928 10.8788L7.70679 6.29279C7.51926 6.10532 7.26495 6 6.99979 6C6.73462 6 6.48031 6.10532 6.29279 6.29279C6.10532 6.48031 6 6.73462 6 6.99979C6 7.26495 6.10532 7.51926 6.29279 7.70679L10.8788 12.2928L6.29279 16.8788C6.10532 17.0663 6 17.3206 6 17.5858C6 17.851 6.10532 18.1053 6.29279 18.2928C6.48031 18.4803 6.73462 18.5856 6.99979 18.5856C7.26495 18.5856 7.51926 18.4803 7.70679 18.2928L12.2928 13.7068L16.8788 18.2928C17.0663 18.4803 17.3206 18.5856 17.5858 18.5856C17.851 18.5856 18.1053 18.4803 18.2928 18.2928C18.4803 18.1053 18.5856 17.851 18.5856 17.5858C18.5856 17.3206 18.4803 17.0663 18.2928 16.8788L13.7068 12.2928L18.2928 7.70679C18.4803 7.51926 18.5856 7.26495 18.5856 6.99979C18.5856 6.73462 18.4803 6.48031 18.2928 6.29279Z" fill="#301207"/>
</svg>
