<svg width="25" height="24" viewBox="0 0 25 24" fill="none" xmlns="http://www.w3.org/2000/svg">
<path d="M19.0428 6.29279C18.8553 6.10532 18.601 6 18.3358 6C18.0706 6 17.8163 6.10532 17.6288 6.29279L13.0428 10.8788L8.45679 6.29279C8.26926 6.10532 8.01495 6 7.74979 6C7.48462 6 7.23031 6.10532 7.04279 6.29279C6.85532 6.48031 6.75 6.73462 6.75 6.99979C6.75 7.26495 6.85532 7.51926 7.04279 7.70679L11.6288 12.2928L7.04279 16.8788C6.85532 17.0663 6.75 17.3206 6.75 17.5858C6.75 17.851 6.85532 18.1053 7.04279 18.2928C7.23031 18.4803 7.48462 18.5856 7.74979 18.5856C8.01495 18.5856 8.26926 18.4803 8.45679 18.2928L13.0428 13.7068L17.6288 18.2928C17.8163 18.4803 18.0706 18.5856 18.3358 18.5856C18.601 18.5856 18.8553 18.4803 19.0428 18.2928C19.2303 18.1053 19.3356 17.851 19.3356 17.5858C19.3356 17.3206 19.2303 17.0663 19.0428 16.8788L14.4568 12.2928L19.0428 7.70679C19.2303 7.51926 19.3356 7.26495 19.3356 6.99979C19.3356 6.73462 19.2303 6.48031 19.0428 6.29279Z" fill="white"/>
</svg>
