<svg width="22" height="22" viewBox="0 0 22 22" fill="none" xmlns="http://www.w3.org/2000/svg">
<g clip-path="url(#clip0_2253_8085)">
<path d="M21.655 3.52458C21.4835 3.28533 21.2576 3.09031 20.9959 2.95563C20.7342 2.82094 20.4442 2.75046 20.1498 2.75H16.9012C17.3769 1.97358 17.9095 0.099 16.4942 0C16.251 0 16.0179 0.0965771 15.846 0.268485C15.6741 0.440394 15.5775 0.673552 15.5775 0.916667C15.5775 1.4029 15.3843 1.86921 15.0405 2.21303C14.6967 2.55685 14.2304 2.75 13.7442 2.75H8.24416C7.75793 2.75 7.29161 2.55685 6.94779 2.21303C6.60398 1.86921 6.41082 1.4029 6.41082 0.916667C6.41082 0.673552 6.31425 0.440394 6.14234 0.268485C5.97043 0.0965771 5.73727 0 5.49416 0C4.07516 0.0999167 4.61232 1.97267 5.08716 2.75H1.83849C1.54938 2.75034 1.26441 2.81878 1.00668 2.94978C0.748945 3.08077 0.525692 3.27063 0.355008 3.50399C0.184324 3.73734 0.0710082 4.00761 0.0242414 4.29292C-0.0225253 4.57823 -0.00142795 4.87053 0.0858244 5.14617C0.584155 6.4963 1.52802 7.63611 2.76157 8.37742C2.76157 8.4095 5.51157 19.437 5.51157 19.437C5.55756 20.1309 5.86528 20.7815 6.37252 21.2573C6.87977 21.733 7.54871 21.9985 8.24416 22H13.7442C14.4399 21.998 15.1089 21.7318 15.6158 21.2553C16.1228 20.7788 16.4298 20.1276 16.4749 19.4333C16.4749 19.4333 19.2249 8.40583 19.2249 8.37375C20.4583 7.63392 21.4028 6.49579 21.9025 5.14708C21.9948 4.87668 22.0205 4.58799 21.9775 4.30552C21.9344 4.02305 21.8237 3.75516 21.655 3.52458ZM16.8425 7.2985C16.2123 7.26485 15.5818 7.35893 14.9889 7.5751C14.396 7.79127 13.8529 8.12506 13.3923 8.55641C12.9317 8.98777 12.563 9.50779 12.3084 10.0852C12.0538 10.6627 11.9186 11.2856 11.9108 11.9167V16.5H10.0775V11.9167C10.0697 11.2856 9.93451 10.6627 9.67992 10.0852C9.42533 9.50779 9.05665 8.98777 8.59601 8.55641C8.13537 8.12506 7.59228 7.79127 6.99938 7.5751C6.40648 7.35893 5.776 7.26485 5.14582 7.2985C5.78106 6.22825 6.63054 5.30076 7.64099 4.57417L14.3327 4.58333C15.3483 5.3048 16.2029 6.22939 16.8425 7.2985ZM1.83849 4.58333H4.88274C4.31889 5.20469 3.82689 5.88764 3.41607 6.61925C2.69528 6.11696 2.14492 5.4067 1.83849 4.58333ZM5.49416 9.16667C5.81754 9.16936 6.13787 9.22958 6.44016 9.3445C6.39539 9.56762 6.40644 9.79833 6.47232 10.0162C6.5382 10.234 6.65686 10.4321 6.81777 10.5931C6.97868 10.754 7.17685 10.8726 7.39467 10.9385C7.61249 11.0044 7.84321 11.0154 8.06632 10.9707C8.18124 11.273 8.24146 11.5933 8.24416 11.9167V16.5C7.724 16.5013 7.21509 16.6515 6.77749 16.9327L4.81857 9.10158C5.04202 9.13863 5.26774 9.16038 5.49416 9.16667ZM13.7442 20.1667H8.24416C8.00104 20.1667 7.76788 20.0701 7.59598 19.8982C7.42407 19.7263 7.32749 19.4931 7.32749 19.25C7.32749 19.0069 7.42407 18.7737 7.59598 18.6018C7.76788 18.4299 8.00104 18.3333 8.24416 18.3333H13.7442C13.9873 18.3333 14.2204 18.4299 14.3923 18.6018C14.5642 18.7737 14.6608 19.0069 14.6608 19.25C14.6608 19.4931 14.5642 19.7263 14.3923 19.8982C14.2204 20.0701 13.9873 20.1667 13.7442 20.1667ZM15.2108 16.9327C14.7732 16.6515 14.2643 16.5013 13.7442 16.5V11.9167C13.7469 11.5933 13.8071 11.273 13.922 10.9707C14.1451 11.0154 14.3758 11.0044 14.5936 10.9385C14.8115 10.8726 15.0096 10.754 15.1705 10.5931C15.3315 10.4321 15.4501 10.234 15.516 10.0162C15.5819 9.79833 15.5929 9.56762 15.5482 9.3445C16.0775 9.20145 16.6217 9.11993 17.1697 9.10158L15.2108 16.9327ZM18.5695 6.61375C18.1561 5.875 17.6594 5.18606 17.0891 4.56042L20.1608 4.55583C19.851 5.38711 19.2961 6.10473 18.5695 6.61375Z" fill="#B56C27"/>
</g>
<defs>
<clipPath id="clip0_2253_8085">
<rect width="22" height="22" fill="white"/>
</clipPath>
</defs>
</svg>
