<svg width="20" height="20" viewBox="0 0 20 20" fill="none" xmlns="http://www.w3.org/2000/svg">
<path d="M8.94191 3.73334C11.3957 3.73335 13.8555 3.84274 16.3044 4.05561L17.3534 4.15326L17.416 4.16222C17.7267 4.22496 17.9452 4.51468 17.9133 4.83686C17.8813 5.15871 17.6106 5.39916 17.294 5.40001L17.2297 5.39675L16.1961 5.30073C13.7824 5.09091 11.3587 4.98335 8.94191 4.98334C7.313 4.98334 5.68345 5.06536 4.05422 5.22993L4.05259 5.23074L2.35256 5.39675C2.00905 5.43043 1.7035 5.17954 1.66978 4.83604C1.6361 4.49254 1.887 4.18698 2.23049 4.15326L3.92889 3.98725C5.5996 3.8185 7.27089 3.73334 8.94191 3.73334Z" fill="#301207"/>
<path d="M10.8828 0.833344C11.6619 0.833344 12.2642 1.00447 12.6569 1.45672C13.0122 1.86611 13.0859 2.4064 13.1411 2.74578L13.3242 3.82895L13.3316 3.89243C13.3527 4.20859 13.1315 4.49597 12.8124 4.54998C12.4933 4.60387 12.1901 4.40534 12.106 4.09994L12.0921 4.03728L11.9082 2.95411V2.95086C11.8385 2.52334 11.7939 2.36952 11.7129 2.27621C11.6679 2.22442 11.511 2.08334 10.8828 2.08334H8.70021C8.0618 2.08334 7.90969 2.22068 7.86932 2.26645C7.8118 2.33175 7.77352 2.43047 7.72609 2.66358L7.67482 2.94516L7.4909 4.03647C7.43375 4.37681 7.11184 4.60702 6.7715 4.54998C6.43109 4.49281 6.20164 4.17017 6.25881 3.82976L6.44191 2.73845L6.49237 2.4463C6.55439 2.12793 6.6629 1.74462 6.93182 1.43963C7.32687 0.991648 7.9303 0.833344 8.70021 0.833344H10.8828Z" fill="#301207"/>
<path d="M15.5399 6.78497C15.8842 6.8072 16.1454 7.10392 16.1234 7.44822L15.5822 15.8401L15.5814 15.8434C15.5591 16.1611 15.5356 16.5125 15.4699 16.8387C15.4029 17.1713 15.2851 17.5225 15.0459 17.834C14.5449 18.4862 13.6916 18.7503 12.4662 18.7503H7.11623C5.89092 18.7503 5.03823 18.4862 4.53729 17.834C4.29807 17.5225 4.18029 17.1713 4.1133 16.8387C4.0476 16.5125 4.02326 16.1611 4.001 15.8434V15.8401L3.45982 7.44822L3.45819 7.38474C3.46976 7.06812 3.72034 6.80582 4.04331 6.78497C4.36596 6.76433 4.64685 6.99205 4.69924 7.30418L4.70656 7.36847L5.24855 15.7563L5.28436 16.2129C5.29814 16.3507 5.31547 16.4758 5.33889 16.5921C5.38435 16.8177 5.44706 16.9661 5.5285 17.0722C5.66918 17.2554 6.01693 17.5003 7.11623 17.5003H12.4662C13.5656 17.5003 13.9132 17.2554 14.0539 17.0722C14.1354 16.9661 14.1988 16.8179 14.2443 16.5921C14.2911 16.3597 14.3111 16.0928 14.3347 15.7563L14.8758 7.36847L14.8832 7.30418C14.9355 6.99194 15.2171 6.76424 15.5399 6.78497Z" fill="#301207"/>
<path d="M11.1749 12.9167L11.2384 12.9199C11.5537 12.9518 11.7999 13.2179 11.7999 13.5417C11.7999 13.8654 11.5537 14.1316 11.2384 14.1634L11.1749 14.1667H8.39986C8.05468 14.1667 7.77486 13.8869 7.77486 13.5417C7.77486 13.1965 8.05468 12.9167 8.39986 12.9167H11.1749Z" fill="#301207"/>
<path d="M11.8749 9.58334C12.22 9.58334 12.4999 9.86316 12.4999 10.2083C12.4999 10.5535 12.22 10.8333 11.8749 10.8333H7.70819C7.36301 10.8333 7.08319 10.5535 7.08319 10.2083C7.08319 9.86316 7.36301 9.58334 7.70819 9.58334H11.8749Z" fill="#301207"/>
</svg>
