<svg width="91" height="90" viewBox="0 0 91 90" fill="none" xmlns="http://www.w3.org/2000/svg">
<rect x="2.5" y="2" width="86" height="86" rx="14" fill="white"/>
<rect x="2.5" y="2" width="86" height="86" rx="14" stroke="#6C452B" stroke-width="4"/>
<g clip-path="url(#clip0_1_2844)">
<path d="M40.0558 58.5028C40.7844 58.5033 41.5058 58.3591 42.1783 58.0788C42.8508 57.7984 43.461 57.3873 43.9735 56.8695L64.3085 36.5345L59.3571 31.5971L40.0558 50.8985L31.6418 42.4868L26.6905 47.4358L36.1358 56.8811C36.6497 57.397 37.2607 57.8059 37.9335 58.0842C38.6064 58.3626 39.3277 58.5048 40.0558 58.5028Z" fill="#6C452B"/>
<path d="M66.5 17H24.5C22.6435 17 20.863 17.7375 19.5503 19.0503C18.2375 20.363 17.5 22.1435 17.5 24V73H73.5V24C73.5 22.1435 72.7625 20.363 71.4497 19.0503C70.137 17.7375 68.3565 17 66.5 17ZM66.5 66H24.5V24H66.5V66Z" fill="#6C452B"/>
</g>
<defs>
<clipPath id="clip0_1_2844">
<rect width="56" height="56" fill="white" transform="translate(17.5 17)"/>
</clipPath>
</defs>
</svg>
