<svg width="16" height="16" viewBox="0 0 16 16" fill="none" xmlns="http://www.w3.org/2000/svg">
<g clip-path="url(#clip0_2014_2839)">
<path d="M8.03679 4.00115C7.50937 4.00115 6.9938 4.15754 6.55527 4.45056C6.11673 4.74358 5.77494 5.16005 5.57311 5.64732C5.37127 6.13459 5.31846 6.67077 5.42136 7.18805C5.52425 7.70534 5.77823 8.18049 6.15117 8.55343C6.52411 8.92637 6.99926 9.18035 7.51655 9.28324C8.03383 9.38614 8.57001 9.33333 9.05728 9.13149C9.54455 8.92966 9.96102 8.58786 10.254 8.14933C10.5471 7.7108 10.7035 7.19523 10.7035 6.66781C10.7035 5.96057 10.4225 5.28229 9.92241 4.7822C9.42231 4.2821 8.74403 4.00115 8.03679 4.00115ZM8.03679 8.00115C7.77308 8.00115 7.51529 7.92295 7.29603 7.77644C7.07676 7.62993 6.90586 7.42169 6.80495 7.17806C6.70403 6.93442 6.67763 6.66633 6.72907 6.40769C6.78052 6.14905 6.90751 5.91147 7.09398 5.725C7.28045 5.53853 7.51802 5.41155 7.77667 5.3601C8.03531 5.30865 8.3034 5.33506 8.54703 5.43597C8.79067 5.53689 8.9989 5.70779 9.14541 5.92705C9.29192 6.14632 9.37012 6.4041 9.37012 6.66781C9.37012 7.02144 9.22964 7.36057 8.97959 7.61062C8.72955 7.86067 8.39041 8.00115 8.03679 8.00115Z" fill="#B56C27"/>
<path d="M8.03667 16.0013C7.4753 16.0042 6.92141 15.8725 6.42138 15.6174C5.92135 15.3622 5.48973 14.9909 5.16267 14.5347C2.622 11.03 1.33333 8.39533 1.33333 6.70333C1.33333 4.9255 2.03958 3.22048 3.29669 1.96336C4.55381 0.706242 6.25883 0 8.03667 0C9.8145 0 11.5195 0.706242 12.7766 1.96336C14.0338 3.22048 14.74 4.9255 14.74 6.70333C14.74 8.39533 13.4513 11.03 10.9107 14.5347C10.5836 14.9909 10.152 15.3622 9.65196 15.6174C9.15193 15.8725 8.59804 16.0042 8.03667 16.0013ZM8.03667 1.45533C6.64495 1.45692 5.31068 2.01048 4.32658 2.99458C3.34249 3.97868 2.78892 5.31294 2.78733 6.70467C2.78733 8.04467 4.04933 10.5227 6.34 13.682C6.53446 13.9499 6.78958 14.1679 7.08448 14.3182C7.37937 14.4685 7.70567 14.5469 8.03667 14.5469C8.36767 14.5469 8.69396 14.4685 8.98886 14.3182C9.28375 14.1679 9.53887 13.9499 9.73333 13.682C12.024 10.5227 13.286 8.04467 13.286 6.70467C13.2844 5.31294 12.7309 3.97868 11.7468 2.99458C10.7627 2.01048 9.42839 1.45692 8.03667 1.45533Z" fill="#B56C27"/>
</g>
<defs>
<clipPath id="clip0_2014_2839">
<rect width="16" height="16" fill="white"/>
</clipPath>
</defs>
</svg>
