<svg width="56" height="56" viewBox="0 0 56 56" fill="none" xmlns="http://www.w3.org/2000/svg">
<rect width="56" height="56" rx="28" fill="#B56C27" fill-opacity="0.2"/>
<rect x="6" y="6" width="44" height="44" rx="22" fill="#B56C27"/>
<path d="M28 14.25V21.75C27.9982 23.1903 27.4999 24.5859 26.5891 25.7016C25.6783 26.8173 24.4107 27.5849 23 27.875V41.75C23 42.0815 22.8683 42.3995 22.6339 42.6339C22.3995 42.8683 22.0815 43 21.75 43C21.4185 43 21.1005 42.8683 20.8661 42.6339C20.6317 42.3995 20.5 42.0815 20.5 41.75V27.875C19.0893 27.5849 17.8217 26.8173 16.9109 25.7016C16.0001 24.5859 15.5018 23.1903 15.5 21.75V14.25C15.5 13.9185 15.6317 13.6005 15.8661 13.3661C16.1005 13.1317 16.4185 13 16.75 13C17.0815 13 17.3995 13.1317 17.6339 13.3661C17.8683 13.6005 18 13.9185 18 14.25V21.75C18.0032 22.5228 18.2451 23.2758 18.6926 23.9059C19.1401 24.536 19.7714 25.0124 20.5 25.27V14.25C20.5 13.9185 20.6317 13.6005 20.8661 13.3661C21.1005 13.1317 21.4185 13 21.75 13C22.0815 13 22.3995 13.1317 22.6339 13.3661C22.8683 13.6005 23 13.9185 23 14.25V25.27C23.7286 25.0124 24.3599 24.536 24.8074 23.9059C25.2549 23.2758 25.4968 22.5228 25.5 21.75V14.25C25.5 13.9185 25.6317 13.6005 25.8661 13.3661C26.1005 13.1317 26.4185 13 26.75 13C27.0815 13 27.3995 13.1317 27.6339 13.3661C27.8683 13.6005 28 13.9185 28 14.25ZM40.5 25.5C40.4441 27.8756 39.8531 30.2079 38.771 32.3234C37.6889 34.4389 36.1435 36.2832 34.25 37.7188V41.75C34.25 42.0815 34.1183 42.3995 33.8839 42.6339C33.6495 42.8683 33.3315 43 33 43C32.6685 43 32.3505 42.8683 32.1161 42.6339C31.8817 42.3995 31.75 42.0815 31.75 41.75V15.5C31.7388 15.0303 31.8671 14.5679 32.1188 14.1712C32.3704 13.7744 32.7341 13.4613 33.1637 13.2712C33.6573 13.0705 34.1987 13.0178 34.7217 13.1197C35.2447 13.2216 35.7267 13.4736 36.1087 13.845C39.0079 17.0262 40.5792 21.1966 40.5 25.5ZM38 25.5C38.0355 21.8402 36.6974 18.3001 34.25 15.5787V34.3375C36.5926 31.9853 37.9361 28.8191 38 25.5Z" fill="white"/>
</svg>
