<svg width="24" height="24" viewBox="0 0 24 24" fill="none" xmlns="http://www.w3.org/2000/svg">
<path d="M11.4054 1C14.2694 1.00023 16.5949 3.32636 16.5949 6.19043V6.19336C16.5835 8.90608 14.5118 11.1328 11.8498 11.3545L11.59 11.3691C11.5568 11.3702 11.5235 11.3695 11.4904 11.3662C11.4662 11.3638 11.436 11.3623 11.4035 11.3623L11.3029 11.3672C11.2721 11.37 11.2411 11.3702 11.2101 11.3691C8.42505 11.2755 6.21523 8.99361 6.215 6.19043C6.215 3.32732 8.53012 1 11.4054 1ZM7.715 6.19043C7.71522 8.18248 9.27869 9.79612 11.2472 9.86914C11.3466 9.86328 11.4497 9.86338 11.549 9.86914C13.5177 9.79811 15.0847 8.18529 15.0949 6.19043L15.09 6C14.9909 4.05243 13.3773 2.50023 11.4054 2.5C9.36074 2.5 7.715 4.15354 7.715 6.19043Z" fill="#301207" fill-opacity="0.5"/>
<path d="M11.5771 12.1875C13.5045 12.1875 15.47 12.6715 16.9893 13.6855C18.3558 14.5947 19.1396 15.8694 19.1396 17.2412C19.1396 18.5269 18.4523 19.7295 17.2412 20.6279L16.9922 20.8037C15.4681 21.8235 13.4993 22.3095 11.5703 22.3096C9.64123 22.3096 7.67168 21.8235 6.14746 20.8037C4.78236 19.8947 4.0001 18.62 4 17.249C4 15.8777 4.78219 14.6005 6.14746 13.6865L6.15039 13.6846L6.44238 13.501C7.92514 12.6129 9.76943 12.1876 11.5771 12.1875ZM11.5771 13.6875C9.87571 13.6876 8.21098 14.119 6.97949 14.9355C5.92698 15.6412 5.5 16.4935 5.5 17.249C5.5001 17.9574 5.87519 18.7493 6.79004 19.4229L6.98047 19.5557L6.98242 19.5566L7.2168 19.7061C8.41555 20.4294 9.9757 20.8096 11.5703 20.8096C13.2711 20.8095 14.9325 20.3768 16.1582 19.5566L16.3486 19.4229C17.2645 18.7446 17.6396 17.9501 17.6396 17.2412C17.6396 16.4855 17.2126 15.6354 16.1592 14.9346L16.1582 14.9336C14.9378 14.1186 13.2788 13.6875 11.5771 13.6875Z" fill="#301207" fill-opacity="0.5"/>
</svg>
