<svg width="25" height="24" viewBox="0 0 25 24" fill="none" xmlns="http://www.w3.org/2000/svg">
<path d="M9.90543 1C12.7694 1.00023 15.0949 3.32636 15.0949 6.19043V6.19336C15.0835 8.90608 13.0118 11.1328 10.3498 11.3545L10.09 11.3691C10.0568 11.3702 10.0235 11.3695 9.99039 11.3662C9.96621 11.3638 9.93602 11.3623 9.90348 11.3623L9.80289 11.3672C9.77205 11.37 9.74106 11.3702 9.71012 11.3691C6.92505 11.2755 4.71523 8.99361 4.715 6.19043C4.715 3.32732 7.03012 1 9.90543 1ZM6.215 6.19043C6.21522 8.18248 7.77869 9.79612 9.74723 9.86914C9.84664 9.86328 9.94969 9.86338 10.049 9.86914C12.0177 9.79811 13.5847 8.18529 13.5949 6.19043L13.59 6C13.4909 4.05243 11.8773 2.50023 9.90543 2.5C7.86074 2.5 6.215 4.15354 6.215 6.19043Z" fill="#6C452B"/>
<path d="M20.0649 7.25C20.0649 5.82766 18.9878 4.65567 17.5971 4.51465L17.2387 4.49609C16.8603 4.45787 16.5649 4.13846 16.5649 3.75C16.5649 3.33583 16.9007 3.00006 17.3149 3L17.5346 3.00586C19.7872 3.12003 21.5649 4.98046 21.5649 7.25C21.5649 9.47358 19.8562 11.2971 17.685 11.4863L17.4731 11.499C17.4327 11.5005 17.3921 11.4992 17.352 11.4941L17.268 11.4951C16.8564 11.5409 16.4857 11.2446 16.4399 10.833C16.3941 10.4214 16.6904 10.0507 17.102 10.0049L17.3188 9.99219C17.3572 9.99219 17.3956 9.9966 17.434 9.99902C18.8952 9.93531 20.0649 8.72878 20.0649 7.25Z" fill="#6C452B"/>
<path d="M10.0771 12.1875C12.0045 12.1875 13.97 12.6715 15.4893 13.6855C16.8558 14.5947 17.6396 15.8694 17.6396 17.2412C17.6396 18.5269 16.9523 19.7295 15.7412 20.6279L15.4922 20.8037C13.9681 21.8235 11.9993 22.3095 10.0703 22.3096C8.14123 22.3096 6.17168 21.8235 4.64746 20.8037C3.28236 19.8947 2.5001 18.62 2.5 17.249C2.5 15.8777 3.28219 14.6005 4.64746 13.6865L4.65039 13.6846L4.94238 13.501C6.42514 12.6129 8.26943 12.1876 10.0771 12.1875ZM10.0771 13.6875C8.37571 13.6876 6.71098 14.119 5.47949 14.9355C4.42698 15.6412 4 16.4935 4 17.249C4.0001 17.9574 4.37519 18.7493 5.29004 19.4229L5.48047 19.5557L5.48242 19.5566L5.7168 19.7061C6.91555 20.4294 8.4757 20.8096 10.0703 20.8096C11.7711 20.8095 13.4325 20.3768 14.6582 19.5566L14.8486 19.4229C15.7645 18.7446 16.1396 17.9501 16.1396 17.2412C16.1396 16.4855 15.7126 15.6354 14.6592 14.9346L14.6582 14.9336C13.4378 14.1186 11.7788 13.6875 10.0771 13.6875Z" fill="#6C452B"/>
<path d="M19.3641 13.0049L19.4403 13.0186L19.7352 13.0918C20.4199 13.2782 21.0831 13.5751 21.6542 14.0098C22.5969 14.7168 23.1249 15.7032 23.1249 16.7451C23.1248 17.787 22.5978 18.7735 21.6552 19.4805L21.6542 19.4795C20.9936 19.9848 20.209 20.3154 19.3983 20.4844C18.9929 20.5688 18.5952 20.3086 18.5106 19.9033C18.4262 19.4979 18.6864 19.1002 19.0917 19.0156C19.7179 18.8852 20.2901 18.6366 20.7479 18.2852L20.7548 18.2803L20.9696 18.1016C21.4313 17.6766 21.6248 17.1896 21.6249 16.7451C21.6249 16.2371 21.3721 15.6729 20.7548 15.21L20.7499 15.2061C20.3596 14.908 19.8787 14.6851 19.3427 14.5391L19.1102 14.4814L19.036 14.4609C18.6756 14.3403 18.4585 13.9637 18.5438 13.585C18.6293 13.2063 18.9869 12.9593 19.3641 13.0049Z" fill="#6C452B"/>
</svg>
