<svg width="20" height="20" viewBox="0 0 20 20" fill="none" xmlns="http://www.w3.org/2000/svg">
<path d="M15.8333 8.95833C15.8333 5.16137 12.7552 2.08333 8.95825 2.08333C5.16129 2.08333 2.08325 5.16137 2.08325 8.95833C2.08325 12.7553 5.16129 15.8333 8.95825 15.8333C12.7552 15.8333 15.8333 12.7553 15.8333 8.95833ZM17.0833 8.95833C17.0833 13.4456 13.4456 17.0833 8.95825 17.0833C4.47094 17.0833 0.833252 13.4456 0.833252 8.95833C0.833252 4.47101 4.47094 0.833328 8.95825 0.833328C13.4456 0.833328 17.0833 4.47101 17.0833 8.95833Z" fill="#301207"/>
<path d="M16.7549 14.7672C17.5133 14.7684 18.2281 15.031 18.5688 15.6673C18.8887 16.2649 18.7523 16.9548 18.3882 17.5594L18.3125 17.679C17.8707 18.344 17.2254 18.8414 16.4709 18.7402C15.7163 18.639 15.2251 17.9893 14.9735 17.2298L14.9727 17.229C14.7716 16.62 14.831 15.9911 15.1826 15.5029C15.5342 15.0151 16.11 14.7631 16.75 14.7672C16.7511 14.7672 16.7522 14.7672 16.7533 14.7672L16.7557 14.7664L16.7549 14.7672ZM16.6353 16.0205C16.3971 16.042 16.2637 16.1407 16.1966 16.2337C16.1192 16.3412 16.0613 16.5377 16.16 16.8367L16.2324 17.0296C16.4049 17.4296 16.5896 17.4943 16.6369 17.5008C16.6907 17.508 16.9376 17.4889 17.2708 16.9873L17.3636 16.8343C17.5456 16.4985 17.4983 16.3159 17.467 16.2573C17.4314 16.1909 17.2729 16.0165 16.75 16.0164H16.7443L16.6353 16.0205Z" fill="#301207"/>
</svg>
