<svg width="24" height="24" viewBox="0 0 24 24" fill="none" xmlns="http://www.w3.org/2000/svg">
<path d="M23 20.0091V18.0091C22.9964 15.2664 21.9692 12.6238 20.1196 10.5987C18.27 8.57353 15.7311 7.31165 13 7.06005V5.73205C13.3813 5.51192 13.6793 5.17212 13.8478 4.76537C14.0162 4.35861 14.0458 3.90763 13.9319 3.48236C13.8179 3.0571 13.5668 2.68131 13.2175 2.41329C12.8682 2.14527 12.4403 2 12 2C11.5597 2 11.1318 2.14527 10.7825 2.41329C10.4332 2.68131 10.1821 3.0571 10.0681 3.48236C9.9542 3.90763 9.98376 4.35861 10.1522 4.76537C10.3207 5.17212 10.6187 5.51192 11 5.73205V7.06005C8.26889 7.31165 5.73002 8.57353 3.88041 10.5987C2.0308 12.6238 1.00363 15.2664 1 18.0091V20.0091C0.734784 20.0091 0.48043 20.1144 0.292893 20.3019C0.105357 20.4895 0 20.7438 0 21.0091C0 21.2743 0.105357 21.5286 0.292893 21.7162C0.48043 21.9037 0.734784 22.0091 1 22.0091H23C23.2652 22.0091 23.5196 21.9037 23.7071 21.7162C23.8946 21.5286 24 21.2743 24 21.0091C24 20.7438 23.8946 20.4895 23.7071 20.3019C23.5196 20.1144 23.2652 20.0091 23 20.0091ZM3 18.0091C3.473 6.07505 20.531 6.08405 21 18.0091V20.0091H3V18.0091Z" fill="white"/>
</svg>
