<svg width="24" height="24" viewBox="0 0 24 24" fill="none" xmlns="http://www.w3.org/2000/svg">
<path d="M3.49023 1C4.6794 1.0001 5.66576 1.8007 5.97949 2.87012H18.4805C20.5174 2.87037 22.0883 4.48153 22.0469 6.48828L22.0381 6.68359L21.498 14.1836V14.1875C21.3583 16.0043 19.7759 17.49 17.9404 17.4902H7.29004C5.21307 17.4902 3.5751 15.716 3.75293 13.6455L4.58301 3.6875L4.58594 3.56934C4.57188 2.98655 4.09003 2.50012 3.49023 2.5H1.75C1.33579 2.5 1 2.16421 1 1.75C1 1.33579 1.33579 1 1.75 1H3.49023ZM5.24707 13.7725V13.7744C5.14506 14.9638 6.0871 15.9902 7.29004 15.9902H17.9404C18.9846 15.99 19.9217 15.1152 20.002 14.0723L20.542 6.57617L20.5469 6.34961C20.5149 5.23394 19.6399 4.37035 18.4805 4.37012H6.03027L5.24707 13.7725Z" fill="#301207" fill-opacity="0.5"/>
<path d="M16.5 20.5C16.5 20.2239 16.2761 20 16 20C15.7239 20 15.5 20.2239 15.5 20.5C15.5 20.7761 15.7239 21 16 21C16.2761 21 16.5 20.7761 16.5 20.5ZM18 20.5C18 21.6046 17.1046 22.5 16 22.5C14.8954 22.5 14 21.6046 14 20.5C14 19.3954 14.8954 18.5 16 18.5C17.1046 18.5 18 19.3954 18 20.5Z" fill="#301207" fill-opacity="0.5"/>
<path d="M8.5 20.5C8.5 20.2239 8.27614 20 8 20C7.72386 20 7.5 20.2239 7.5 20.5C7.5 20.7761 7.72386 21 8 21C8.27614 21 8.5 20.7761 8.5 20.5ZM10 20.5C10 21.6046 9.10457 22.5 8 22.5C6.89543 22.5 6 21.6046 6 20.5C6 19.3954 6.89543 18.5 8 18.5C9.10457 18.5 10 19.3954 10 20.5Z" fill="#301207" fill-opacity="0.5"/>
<path d="M20.75 7C21.1642 7 21.5 7.33579 21.5 7.75C21.5 8.16421 21.1642 8.5 20.75 8.5H8.75C8.33579 8.5 8 8.16421 8 7.75C8 7.33579 8.33579 7 8.75 7H20.75Z" fill="#301207" fill-opacity="0.5"/>
</svg>
