<svg width="25" height="24" viewBox="0 0 25 24" fill="none" xmlns="http://www.w3.org/2000/svg">
<path d="M21.75 11.75C21.75 6.64421 17.6058 2.5 12.5 2.5C7.39421 2.5 3.25 6.64421 3.25 11.75C3.25 16.8558 7.39421 21 12.5 21C17.6058 21 21.75 16.8558 21.75 11.75ZM23.25 11.75C23.25 17.6842 18.4342 22.5 12.5 22.5C6.56579 22.5 1.75 17.6842 1.75 11.75C1.75 5.81579 6.56579 1 12.5 1C18.4342 1 23.25 5.81579 23.25 11.75Z" fill="#301207"/>
<path d="M11.38 11.3596V7.26C11.38 6.84579 11.7158 6.51 12.13 6.51C12.5442 6.51 12.88 6.84579 12.88 7.26V11.3596C12.88 11.5132 12.9391 11.7365 13.0695 11.9651C13.1671 12.1362 13.282 12.2711 13.3888 12.3606L13.4923 12.4348L13.4943 12.4358L16.5939 14.2864L16.6583 14.3284C16.9634 14.5551 17.0526 14.9812 16.8536 15.3147C16.6545 15.6478 16.238 15.7704 15.8937 15.6096L15.8253 15.5745L12.7257 13.7239C12.3183 13.4817 11.9899 13.1012 11.7657 12.7082C11.5411 12.3144 11.38 11.8361 11.38 11.3596Z" fill="#301207"/>
</svg>
